<svg width="234" height="79" viewBox="0 0 234 79" fill="none" xmlns="http://www.w3.org/2000/svg">
<path d="M57.129 43.116C54.3162 54.5427 42.8893 61.4969 31.6058 58.6474C20.327 55.7985 13.4608 44.2244 16.2749 32.7983C19.0864 21.3702 30.5133 14.4154 41.7935 17.2643C53.0763 20.1131 59.9418 31.6885 57.129 43.116Z" fill="white" fill-opacity="0.48"/>
<path d="M45.9838 34.9173C46.403 32.0791 44.2694 30.5534 41.3519 29.5356L42.2983 25.6909L39.9876 25.1076L39.0663 28.851C38.4588 28.6977 37.8349 28.553 37.215 28.4097L38.1429 24.6417L35.8336 24.0585L34.8866 27.9018C34.3838 27.7858 33.8902 27.6712 33.4111 27.5506L33.4137 27.5386L30.2271 26.7327L29.6124 29.2323C29.6124 29.2323 31.3268 29.6302 31.2906 29.6549C32.2264 29.8915 32.3956 30.5187 32.3673 31.016L31.2893 35.3959C31.3538 35.4126 31.4374 35.4366 31.5295 35.4739C31.4525 35.4546 31.3702 35.4332 31.2853 35.4126L29.7743 41.5482C29.6598 41.8362 29.3695 42.2681 28.7154 42.1041C28.7384 42.1381 27.0359 41.6795 27.0359 41.6795L25.8888 44.3584L28.8957 45.1176C29.4551 45.2596 30.0033 45.4082 30.543 45.5482L29.5867 49.4369L31.8947 50.0201L32.8418 46.1728C33.4723 46.3461 34.0843 46.5061 34.6832 46.6567L33.7395 50.4861L36.0501 51.0693L37.0064 47.1879C40.9465 47.9431 43.9094 47.6385 45.1565 44.0291C46.1614 41.123 45.1065 39.4466 43.0334 38.3534C44.5431 38.0008 45.6804 36.995 45.9838 34.9173ZM40.7043 42.4154C39.9903 45.3216 35.159 43.7505 33.5927 43.3566L34.8615 38.2048C36.4279 38.6007 41.4506 39.3846 40.7043 42.4154ZM41.419 34.8753C40.7675 37.5189 36.7464 36.1758 35.442 35.8465L36.5924 31.1739C37.8968 31.5032 42.0976 32.1178 41.419 34.8753Z" fill="#00282D"/>
<path d="M77.3569 29.5342C79.0648 29.5342 80.5403 29.8442 81.7802 30.4527C83.026 31.0673 84.054 31.8952 84.8786 32.9363C85.692 33.9828 86.2975 35.2059 86.6884 36.6077C87.0767 38.0135 87.2715 39.5246 87.2715 41.1423C87.2715 43.6272 86.822 45.9748 85.9145 48.1878C85.0069 50.4041 83.7756 52.3264 82.2093 53.9661C80.6443 55.6039 78.7963 56.895 76.6653 57.8488C74.5376 58.8033 72.2243 59.2806 69.7405 59.2806C69.4194 59.2806 68.8547 59.2713 68.0571 59.2546C67.2594 59.2379 66.3427 59.1546 65.316 59.014C64.2828 58.868 63.1903 58.652 62.0366 58.3627C60.8836 58.0788 59.7885 57.6809 58.7572 57.1756L67.9787 17.9315L76.2382 16.635L72.9364 30.5614C73.6432 30.2388 74.3553 29.9888 75.066 29.8068C75.7775 29.6275 76.5409 29.5342 77.3569 29.5342ZM70.4289 52.6444C71.6728 52.6444 72.8449 52.3344 73.9459 51.7259C75.0502 51.1166 76.0032 50.2941 76.8015 49.2696C77.5998 48.2404 78.2316 47.0813 78.6923 45.7862C79.1529 44.4911 79.3859 43.14 79.3859 41.7342C79.3859 40.0071 79.101 38.66 78.533 37.6862C77.9651 36.7164 76.914 36.2284 75.3879 36.2284C74.8877 36.2284 74.2434 36.3251 73.4444 36.4977C72.6428 36.681 71.9255 37.0616 71.2825 37.6342L67.7668 52.4237C67.9788 52.4617 68.1663 52.4977 68.3262 52.5317C68.4829 52.5684 68.656 52.5944 68.8284 52.6124C69.0107 52.633 69.2193 52.6437 69.4714 52.6437C69.7234 52.6437 70.0387 52.6444 70.4289 52.6444Z" fill="white" fill-opacity="0.48"/>
<path d="M95.8389 58.5261H87.95L94.6122 30.1328H102.555L95.8389 58.5261ZM99.6777 26.6734C98.5767 26.6734 97.5783 26.3414 96.6925 25.6762C95.7994 25.015 95.3572 23.9971 95.3572 22.6254C95.3572 21.8708 95.5085 21.1629 95.8086 20.4951C96.1133 19.8285 96.5115 19.2546 97.0104 18.7667C97.5086 18.2828 98.0857 17.8962 98.7412 17.6049C99.4006 17.3183 100.102 17.1749 100.85 17.1749C101.95 17.1749 102.943 17.5069 103.832 18.1721C104.718 18.8407 105.164 19.8585 105.164 21.2229C105.164 21.9801 105.013 22.6907 104.71 23.3573C104.41 24.0238 104.011 24.5977 103.513 25.0856C103.018 25.5702 102.436 25.9555 101.782 26.2441C101.122 26.5354 100.423 26.6734 99.6777 26.6734Z" fill="white" fill-opacity="0.48"/>
<path d="M109.467 23.06L117.73 21.7635L115.701 30.1328H124.55L122.952 36.717H114.156L111.813 46.6487C111.598 47.4766 111.475 48.2498 111.441 48.9683C111.402 49.6902 111.492 50.3101 111.706 50.832C111.917 51.3553 112.298 51.7585 112.851 52.0438C113.401 52.3338 114.189 52.4797 115.222 52.4797C116.073 52.4797 116.903 52.3977 117.704 52.2351C118.501 52.0751 119.309 51.8525 120.126 51.5612L120.715 57.7175C119.648 58.1135 118.494 58.4541 117.25 58.7407C116.004 59.0313 114.529 59.1713 112.825 59.1713C110.374 59.1713 108.474 58.8027 107.12 58.0688C105.769 57.3296 104.813 56.3198 104.241 55.0413C103.677 53.7675 103.425 52.2991 103.495 50.6447C103.569 48.9863 103.815 47.2433 104.241 45.4076L109.467 23.06Z" fill="white" fill-opacity="0.48"/>
<path d="M124.202 47.1913C124.202 44.7457 124.593 42.4394 125.374 40.2804C126.154 38.1195 127.277 36.2298 128.735 34.608C130.187 32.9943 131.957 31.7159 134.04 30.7773C136.113 29.8442 138.434 29.3736 140.992 29.3736C142.594 29.3736 144.024 29.5269 145.282 29.8342C146.546 30.1441 147.689 30.5447 148.723 31.0473L146.002 37.3129C145.291 37.021 144.554 36.7637 143.791 36.5304C143.027 36.2924 142.095 36.1778 140.993 36.1778C138.36 36.1778 136.278 37.097 134.729 38.9293C133.186 40.763 132.409 43.2313 132.409 46.3274C132.409 48.1624 132.8 49.6462 133.584 50.7813C134.365 51.9165 135.806 52.4811 137.9 52.4811C138.933 52.4811 139.93 52.3717 140.885 52.1584C141.847 51.9425 142.697 51.6705 143.445 51.3493L144.034 57.7722C143.037 58.1641 141.936 58.5181 140.729 58.828C139.52 59.1273 138.08 59.2826 136.41 59.2826C134.206 59.2826 132.34 58.956 130.814 58.3128C129.287 57.6595 128.026 56.7923 127.032 55.6939C126.033 54.5927 125.315 53.3069 124.872 51.8312C124.428 50.3568 124.202 48.8077 124.202 47.1913Z" fill="white" fill-opacity="0.48"/>
<path d="M159.245 59.2813C157.363 59.2813 155.727 58.9906 154.34 58.4154C152.956 57.8402 151.811 57.033 150.904 55.9865C149.997 54.9453 149.318 53.7115 148.852 52.2898C148.387 50.8687 148.163 49.2949 148.163 47.5705C148.163 45.4076 148.506 43.2453 149.199 41.089C149.889 38.928 150.912 36.9863 152.267 35.2606C153.611 33.5322 155.268 32.1191 157.22 31.0173C159.17 29.9228 161.413 29.3722 163.933 29.3722C165.781 29.3722 167.408 29.6635 168.814 30.2388C170.214 30.8127 171.367 31.6265 172.279 32.6677C173.18 33.7142 173.866 34.9427 174.326 36.3664C174.79 37.7848 175.019 39.3626 175.019 41.0883C175.019 43.2446 174.681 45.4069 174.01 47.5699C173.338 49.7222 172.341 51.6685 171.024 53.3982C169.711 55.124 168.068 56.5364 166.095 57.6335C164.125 58.7307 161.84 59.2813 159.245 59.2813ZM163.188 36.1771C162.019 36.1771 160.985 36.5211 160.1 37.2003C159.211 37.8875 158.465 38.7514 157.863 39.7932C157.255 40.8397 156.804 41.9808 156.5 43.2213C156.198 44.4644 156.05 45.6395 156.05 46.756C156.05 48.5577 156.337 49.9608 156.901 50.9706C157.472 51.9751 158.5 52.4804 159.993 52.4804C161.166 52.4804 162.195 52.1391 163.085 51.4526C163.969 50.7707 164.716 49.9062 165.322 48.8623C165.926 47.8212 166.381 46.6767 166.685 45.4342C166.984 44.1951 167.136 43.0133 167.136 41.8988C167.136 40.1018 166.85 38.6954 166.281 37.6869C165.712 36.6824 164.68 36.1771 163.188 36.1771Z" fill="white" fill-opacity="0.48"/>
<path d="M183.618 58.5261H175.723L182.385 30.1328H190.332L183.618 58.5261ZM187.451 26.6734C186.351 26.6734 185.353 26.3414 184.468 25.6762C183.58 25.015 183.134 23.9971 183.134 22.6254C183.134 21.8708 183.287 21.1629 183.588 20.4951C183.889 19.8285 184.289 19.2546 184.788 18.7667C185.284 18.2828 185.866 17.8962 186.52 17.6049C187.176 17.3183 187.878 17.1749 188.623 17.1749C189.726 17.1749 190.722 17.5069 191.609 18.1721C192.497 18.8407 192.945 19.8585 192.945 21.2229C192.945 21.9801 192.786 22.6907 192.488 23.3573C192.19 24.0238 191.789 24.5977 191.292 25.0856C190.792 25.5702 190.216 25.9555 189.561 26.2441C188.9 26.5354 188.2 26.6734 187.451 26.6734Z" fill="white" fill-opacity="0.48"/>
<path d="M196.014 31.4266C196.613 31.2493 197.281 31.036 198.009 30.804C198.738 30.572 199.554 30.3561 200.465 30.1614C201.366 29.9608 202.382 29.7982 203.501 29.6722C204.619 29.5436 205.893 29.4809 207.309 29.4809C211.469 29.4809 214.337 30.708 215.921 33.1549C217.503 35.6019 217.777 38.9507 216.75 43.1953L213.121 58.5261H205.18L208.697 43.5179C208.912 42.5807 209.08 41.6749 209.205 40.7897C209.33 39.9125 209.323 39.1393 209.176 38.4701C209.036 37.8088 208.706 37.2676 208.193 36.8483C207.672 36.4357 206.886 36.2284 205.819 36.2284C204.791 36.2284 203.744 36.3404 202.676 36.5564L197.505 58.5254H189.561L196.014 31.4266Z" fill="white" fill-opacity="0.48"/>
</svg>
