<svg width="24" height="24" viewBox="0 0 24 24" fill="none" xmlns="http://www.w3.org/2000/svg">
<path d="M15.6918 7.47449C14.9503 8.05974 14.2098 8.48697 13.6278 8.77717C14.0531 9.01754 14.5216 9.07028 14.9228 8.9799C15.1342 8.93248 15.3254 8.84471 15.4786 8.72414C15.62 8.61257 15.7276 8.47235 15.7847 8.31114C15.8652 8.08238 15.8481 7.79915 15.6918 7.47449Z" fill="white"/>
<path d="M14.4991 12.1956L13.7288 11.7505C13.6541 11.7224 13.5905 11.6713 13.5467 11.6047C13.522 11.567 13.5044 11.5254 13.4944 11.4819C13.4867 11.4487 13.4835 11.4144 13.4852 11.3798C13.5557 9.8866 13.1526 9.22617 12.6087 8.81162C12.4136 8.66308 12.2006 8.58848 11.9905 8.58848C11.7805 8.58848 11.5675 8.66308 11.3724 8.81162C10.8286 9.22617 10.4253 9.8866 10.4959 11.3798C10.4981 11.4278 10.4912 11.4754 10.4758 11.5202C10.4657 11.5498 10.4517 11.5782 10.4343 11.6047C10.3906 11.6713 10.3269 11.7224 10.2524 11.7505L9.48195 12.1956C10.9551 13.0212 11.4238 14.5096 11.8946 16.0052C11.9265 16.1064 11.9583 16.2076 11.9905 16.3087C12.0228 16.2075 12.0547 16.1062 12.0866 16.0049C12.5573 14.5095 13.0258 13.0212 14.4991 12.1956Z" fill="white"/>
<path d="M14.5485 2.53309C13.7738 2.19682 12.881 2.0239 11.9905 2C11.1001 2.0239 10.2073 2.19682 9.4325 2.53309C8.89602 2.7663 8.39545 3.07431 7.94209 3.4426C7.73743 3.60885 7.56886 3.76958 7.38317 3.9545C6.8823 3.97172 6.15045 3.41541 5.8107 2.8948C6.39547 4.81195 9.06391 7.07581 10.9114 7.94217L10.9132 7.94101C11.2447 7.68787 11.6176 7.5612 11.9905 7.5612C12.3635 7.5612 12.7364 7.68787 13.0679 7.94101L13.0698 7.94217C14.9172 7.07581 17.5856 4.81195 18.1704 2.8948C17.8306 3.41541 17.0987 3.97172 16.5979 3.9545C16.4122 3.76958 16.2436 3.60885 16.039 3.4426C15.5856 3.07431 15.085 2.7663 14.5485 2.53309Z" fill="white"/>
<path d="M8.28939 7.47449C9.03072 8.05974 9.77128 8.48697 10.3532 8.77717C9.92785 9.01754 9.4595 9.07028 9.0584 8.9799C8.84696 8.93248 8.65565 8.84471 8.50247 8.72414C8.36109 8.61257 8.25349 8.47235 8.1964 8.31114C8.11589 8.08238 8.13301 7.79915 8.28939 7.47449Z" fill="white"/>
<path d="M17.5607 5.48264C17.2716 5.88945 16.9119 6.34542 16.5037 6.75726L16.6313 7.02211C16.8789 7.53643 16.961 8.11132 16.768 8.65815C16.6437 9.01038 16.4167 9.31249 16.1241 9.54308C15.84 9.767 15.5038 9.91796 15.1517 9.99721C14.9224 10.0488 14.6888 10.0701 14.4566 10.0628C14.5108 10.3699 14.5344 10.6882 14.536 11.0127L16.6076 12.2091L15.0091 13.1052C14.8813 13.1768 14.7596 13.2588 14.6454 13.3505C13.5705 14.3155 12.8454 16.8219 12.319 18.641C12.1999 19.0524 12.0911 19.4286 11.9906 19.744C11.8903 19.4288 11.7815 19.0528 11.6626 18.6417C11.1362 16.8225 10.4109 14.3156 9.33592 13.3505C9.22164 13.2588 9.10001 13.1768 8.97227 13.1052L7.37378 12.2091L9.44527 11.0127C9.44682 10.6882 9.47043 10.3699 9.52462 10.0628C9.41043 10.0664 9.29596 10.0631 9.18168 10.0527C9.06372 10.0418 8.94605 10.0234 8.82954 9.99721C8.4775 9.91796 8.14124 9.767 7.85713 9.54308C7.56451 9.31249 7.33759 9.01038 7.21324 8.65815C7.02029 8.11132 7.10235 7.53633 7.34998 7.02211L7.47742 6.75735C7.06916 6.34542 6.70967 5.88955 6.42043 5.48274L6.27364 5.75911C5.80064 6.7051 5.55505 7.64722 5.55505 8.70769L5.55611 10.3903L5.54721 11.2625C5.51285 13.4038 5.04953 15.5703 4 17.5531L6.19603 15.7823L7.74982 18.3037L9.38208 16.767L11.9905 21L14.5991 16.7669L16.2314 18.3036L17.7852 15.7822L19.9812 17.553C18.9316 15.5703 18.4682 13.4038 18.4341 11.2624L18.4251 10.3902L18.4261 8.7076C18.4261 7.64722 18.1804 6.7051 17.7076 5.75911L17.5607 5.48264Z" fill="white"/>
</svg>
