<svg width="224" height="175" viewBox="0 0 224 175" fill="none" xmlns="http://www.w3.org/2000/svg">
<path d="M222.937 141.406C203.953 155.626 185.55 164.242 167.443 169.88C162.96 163.737 159.003 157.176 155.572 150.296C162.077 147.822 168.346 144.765 174.304 141.164C172.759 139.999 171.224 138.779 169.723 137.537C134.089 154.418 94.916 154.418 58.8554 137.537C57.3582 138.788 55.8267 139.998 54.2629 141.164C60.1816 144.725 66.4402 147.791 72.9727 150.274C69.542 157.176 65.5524 163.715 61.0914 169.869C43.0063 164.22 24.6143 155.604 5.64133 141.406C1.76125 99.7873 9.52141 57.5645 38.1288 14.2538C52.3228 7.59395 67.5034 2.74745 83.3854 0C85.3473 3.51673 87.671 8.26432 89.2384 12.0338C105.789 9.49518 122.493 9.49518 139.351 12.0338C140.918 8.26432 143.198 3.51673 145.138 0C160.998 2.74745 176.167 7.57197 190.351 14.2208C215.155 51.3223 227.485 93.1605 222.937 141.406ZM97.5794 93.3693C97.7767 81.0277 88.8986 70.9061 77.8831 70.9061C66.8676 70.9061 58.1758 81.0387 58.1758 93.3693C58.1758 105.689 67.054 115.81 77.8831 115.81C88.8986 115.81 97.6014 105.689 97.5794 93.3693ZM170.391 93.3693C170.588 81.0277 161.71 70.9061 150.695 70.9061C139.679 70.9061 130.988 81.0387 130.988 93.3693C130.988 105.689 139.866 115.81 150.695 115.81C161.71 115.81 170.391 105.689 170.391 93.3693Z" fill="#fff"/>
</svg>
