<svg width="24" height="24" viewBox="0 0 24 24" fill="none" xmlns="http://www.w3.org/2000/svg">
<path d="M10.9016 17.2147C10.9863 17.2148 11.07 17.2316 11.1482 17.2641C11.2263 17.2966 11.2973 17.3442 11.3571 17.4041C11.4168 17.464 11.4642 17.5351 11.4964 17.6134C11.5287 17.6916 11.5453 17.7754 11.5452 17.8601C11.545 17.9447 11.5282 18.0285 11.4957 18.1066C11.4632 18.1847 11.4157 18.2557 11.3558 18.3155C11.2958 18.3752 11.2247 18.4226 11.1465 18.4549C11.0683 18.4871 10.9844 18.5037 10.8998 18.5036C10.7289 18.5033 10.5651 18.4352 10.4444 18.3142C10.3237 18.1931 10.2561 18.0291 10.2563 17.8582C10.2565 17.6873 10.3247 17.5235 10.4457 17.4028C10.5667 17.2821 10.7307 17.2145 10.9016 17.2147ZM21.0071 13.2299C20.9225 13.2298 20.8387 13.2131 20.7606 13.1807C20.6824 13.1482 20.6114 13.1007 20.5516 13.0408C20.4918 12.9809 20.4444 12.9099 20.412 12.8317C20.3797 12.7535 20.3631 12.6696 20.3632 12.585C20.3632 12.5004 20.38 12.4166 20.4124 12.3384C20.4448 12.2603 20.4924 12.1893 20.5522 12.1295C20.6121 12.0697 20.6832 12.0223 20.7614 11.9899C20.8396 11.9576 20.9234 11.941 21.0081 11.941C21.179 11.9412 21.3428 12.0092 21.4636 12.1301C21.5844 12.2511 21.6521 12.415 21.652 12.5859C21.6519 12.7568 21.5839 12.9207 21.4629 13.0415C21.342 13.1622 21.178 13.23 21.0071 13.2299ZM21.0071 10.5935C20.4787 10.594 19.9721 10.8041 19.5985 11.1778C19.2249 11.5514 19.0148 12.058 19.0143 12.5864C19.0143 12.8 19.05 13.0126 19.1197 13.2198L12.537 16.7243C12.3545 16.4593 12.1102 16.2426 11.8253 16.093C11.5404 15.9433 11.2234 15.8652 10.9016 15.8654C10.1417 15.8654 9.44962 16.3008 9.11411 16.98L3.2006 13.8615C2.57542 13.5333 2.10792 12.5048 2.15742 11.568C2.18308 11.0794 2.35175 10.6999 2.60934 10.5532C2.77251 10.4615 2.96868 10.4689 3.17768 10.5779L3.21618 10.599C4.78371 11.424 9.91162 14.1255 10.128 14.2254C10.4607 14.3803 10.6459 14.4427 11.2142 14.1732L21.8147 8.66024C21.9706 8.60157 22.1521 8.45215 22.1521 8.22573C22.1521 7.91223 21.8276 7.78848 21.8266 7.78848C21.2235 7.49972 20.2967 7.06613 19.3929 6.64262C17.4605 5.73786 15.2705 4.71301 14.3089 4.20884C13.4784 3.77433 12.8102 4.141 12.691 4.21434L12.46 4.32892C8.13143 6.46937 2.338 9.33859 2.008 9.53934C1.41857 9.89868 1.05281 10.6146 1.00515 11.5029C0.931813 12.9118 1.64957 14.3813 2.67717 14.9193L8.93078 18.1442C8.99966 18.6179 9.23669 19.0511 9.59855 19.3644C9.96041 19.6778 10.4229 19.8506 10.9016 19.8511C11.4245 19.8502 11.926 19.6442 12.2985 19.2773C12.671 18.9105 12.8847 18.4121 12.8936 17.8894L19.7815 14.1557C20.1299 14.4289 20.5635 14.5783 21.0071 14.5783C21.5355 14.5779 22.0421 14.3677 22.4158 13.9941C22.7894 13.6205 22.9995 13.1139 23 12.5855C22.9995 12.0571 22.7894 11.5505 22.4158 11.1768C22.0421 10.8032 21.5355 10.5931 21.0071 10.5926" fill="white"/>
</svg>
