<svg width="250" height="39" viewBox="0 0 250 39" fill="none" xmlns="http://www.w3.org/2000/svg">
<g clip-path="url(#clip0_45_137)">
<path d="M2.05308 0H7.56055C8.69455 0 9.61362 0.920823 9.61362 2.05308V9.61539H2.05308C0.919075 9.61539 0 8.69454 0 7.56231V2.05308C0 0.920823 0.920829 0 2.05308 0Z" fill="#00E0FF"/>
<path d="M19.2308 9.61539H9.61539V19.2308H19.2308V9.61539Z" fill="#00E0FF"/>
<path d="M21.3922 0H26.6848C27.8782 0 28.8462 0.968 28.8462 2.16141V9.61539H19.2308V2.16141C19.2308 0.968 20.1988 0 21.3922 0Z" fill="#00E0FF"/>
<path d="M28.8462 9.61539H36.8453C37.7382 9.61539 38.4615 10.3405 38.4615 11.2316V17.6128C38.4615 18.5056 37.7364 19.229 36.8453 19.229H28.8462V9.61362V9.61539Z" fill="#00E0FF"/>
<path d="M9.61539 26.3318V19.2308H1.49394C0.669214 19.2308 0 19.9 0 20.7247V28.8444C0 33.0117 2.88479 38.4598 9.61539 38.4598H17.7351C18.5598 38.4598 19.229 37.7905 19.229 36.9658V28.8462H12.128C10.7389 28.8462 9.61362 27.7209 9.61362 26.3318H9.61539Z" fill="#00E0FF"/>
<path d="M28.8462 19.2308H19.2308V28.8462C19.2308 33.0135 22.1155 38.4615 28.8462 38.4615H36.9659C37.7905 38.4615 38.4598 37.7923 38.4598 36.9676V30.3418C38.4598 29.5172 37.7905 28.8479 36.9659 28.8479H31.3605C29.9714 28.8479 28.8462 27.7226 28.8462 26.3335V19.2308Z" fill="#00E0FF"/>
<path d="M66.8348 33.852C66.9903 34.35 66.7386 34.8846 66.2564 35.0803C64.6769 35.7234 62.9296 36.0449 61.018 36.0449C58.5106 36.0449 56.5292 35.3407 55.0737 33.9324C53.6182 32.5241 52.8913 30.2561 52.8913 27.1302V19.4472C52.8913 18.8934 52.4423 18.4461 51.8901 18.4461H49.9926C49.4386 18.4461 48.9913 17.997 48.9913 17.4449V13.6428C48.9913 13.0889 49.4404 12.6416 49.9926 12.6416H51.8901C52.444 12.6416 52.8913 12.1925 52.8913 11.6403V7.82773C52.8913 7.31753 53.2757 6.88769 53.7842 6.83178L59.0261 6.26041C59.6184 6.19576 60.1356 6.66054 60.1356 7.25637V11.6403C60.1356 12.1942 60.5846 12.6416 61.1368 12.6416H64.8463C65.4003 12.6416 65.8476 13.0906 65.8476 13.6428V17.4449C65.8476 17.9988 65.3985 18.4461 64.8463 18.4461H61.1368C60.5829 18.4461 60.1356 18.8951 60.1356 19.4472V27.1302C60.1356 28.0579 60.368 28.7482 60.8328 29.1972C61.2976 29.6462 61.9319 29.8699 62.7373 29.8699C63.3139 29.8699 63.8836 29.7808 64.4479 29.6026C64.9774 29.4349 65.5435 29.7249 65.7095 30.2543L66.8383 33.852H66.8348Z" fill="white"/>
<path d="M94.2654 13.6445V34.5806C94.2654 35.1346 93.8162 35.5819 93.2646 35.5819H88.7962C88.3069 35.5819 87.8916 35.2289 87.8093 34.7484L87.7916 34.6488C87.6646 33.9009 86.7908 33.5759 86.1893 34.0372C84.4508 35.3757 82.3454 36.0449 79.8693 36.0449C77.7346 36.0449 75.8368 35.5416 74.1803 34.5352C72.5239 33.5288 71.2309 32.1205 70.3031 30.3102C69.3736 28.5 68.9105 26.433 68.9105 24.1109C68.9105 21.7887 69.3753 19.7234 70.3031 17.9114C71.2309 16.0995 72.5239 14.6929 74.1803 13.6865C75.8368 12.6818 77.7323 12.1768 79.8693 12.1768C81.4177 12.1768 82.8416 12.4476 84.1416 12.9892C84.8962 13.3038 85.5885 13.6987 86.2177 14.1757C86.81 14.623 87.6677 14.2683 87.7939 13.5362L87.8039 13.4716C87.8862 12.991 88.3039 12.6398 88.7916 12.6398H93.2623C93.8162 12.6398 94.2639 13.0889 94.2639 13.641L94.2654 13.6445ZM85.5362 28.3149C86.5585 27.2472 87.0685 25.8459 87.0685 24.1126C87.0685 22.3792 86.5585 20.9779 85.5362 19.9103C84.5139 18.8427 83.1985 18.308 81.5893 18.308C79.98 18.308 78.6708 18.8497 77.6646 19.933C76.658 21.0164 76.1548 22.4107 76.1548 24.1126C76.1548 25.8145 76.658 27.2088 77.6646 28.2921C78.6693 29.3755 79.9777 29.9171 81.5893 29.9171C83.2 29.9171 84.5139 29.3824 85.5362 28.3149Z" fill="white"/>
<path d="M143.082 33.852C143.237 34.35 142.985 34.8846 142.503 35.0803C140.924 35.7234 139.176 36.0449 137.265 36.0449C134.758 36.0449 132.776 35.3407 131.321 33.9324C129.865 32.5241 129.138 30.2561 129.138 27.1302V19.4472C129.138 18.8934 128.689 18.4461 128.137 18.4461H126.239C125.685 18.4461 125.238 17.997 125.238 17.4449V13.6428C125.238 13.0889 125.687 12.6416 126.239 12.6416H128.137C128.691 12.6416 129.138 12.1925 129.138 11.6403V7.82773C129.138 7.31753 129.522 6.88769 130.031 6.83178L135.273 6.26041C135.865 6.19576 136.382 6.66054 136.382 7.25637V11.6403C136.382 12.1942 136.832 12.6416 137.384 12.6416H141.093C141.647 12.6416 142.095 13.0906 142.095 13.6428V17.4449C142.095 17.9988 141.645 18.4461 141.093 18.4461H137.384C136.83 18.4461 136.382 18.8951 136.382 19.4472V27.1302C136.382 28.0579 136.615 28.7482 137.08 29.1972C137.545 29.6462 138.178 29.8699 138.984 29.8699C139.561 29.8699 140.131 29.7808 140.695 29.6026C141.225 29.4349 141.791 29.7249 141.956 30.2543L143.085 33.852H143.082Z" fill="white"/>
<path d="M162.803 12.7114C163.567 12.9928 164.257 13.3667 164.875 13.8349C165.274 14.1372 165.379 14.6929 165.131 15.1262L162.973 18.8864C162.707 19.3477 162.127 19.5206 161.652 19.2812C161.309 19.1083 160.981 18.9685 160.668 18.8654C160.111 18.6802 159.522 18.5876 158.903 18.5876C157.355 18.5876 156.132 19.0839 155.234 20.0728C154.336 21.0636 153.887 22.519 153.887 24.4375V34.5806C153.887 35.1346 153.438 35.5819 152.885 35.5819H147.598C147.045 35.5819 146.597 35.1328 146.597 34.5806V13.6445C146.597 13.0906 147.046 12.6433 147.598 12.6433H152.132C152.613 12.6433 153.024 12.984 153.116 13.454C153.265 14.2246 154.208 14.5374 154.778 13.9992C156.094 12.7551 157.717 12.1313 159.646 12.1313C160.698 12.1313 161.752 12.3252 162.803 12.7114Z" fill="white"/>
<path d="M191.455 13.6445V34.5806C191.455 35.1346 191.006 35.5819 190.455 35.5819H185.986C185.497 35.5819 185.082 35.2289 184.999 34.7484L184.982 34.6488C184.855 33.9009 183.981 33.5759 183.379 34.0372C181.641 35.3757 179.535 36.0449 177.059 36.0449C174.925 36.0449 173.027 35.5416 171.37 34.5352C169.714 33.5288 168.421 32.1205 167.493 30.3102C166.564 28.5 166.101 26.433 166.101 24.1109C166.101 21.7887 166.565 19.7234 167.493 17.9114C168.421 16.0995 169.714 14.6929 171.37 13.6865C173.027 12.6818 174.922 12.1768 177.059 12.1768C178.608 12.1768 180.032 12.4476 181.332 12.9892C182.087 13.3038 182.778 13.6987 183.408 14.1757C184 14.623 184.858 14.2683 184.984 13.5362L184.994 13.4716C185.076 12.991 185.494 12.6398 185.982 12.6398H190.452C191.006 12.6398 191.454 13.0889 191.454 13.641L191.455 13.6445ZM182.725 28.3149C183.746 27.2472 184.257 25.8459 184.257 24.1126C184.257 22.3792 183.746 20.9779 182.725 19.9103C181.702 18.8427 180.386 18.308 178.777 18.308C177.168 18.308 175.859 18.8497 174.853 19.933C173.846 21.0164 173.343 22.4107 173.343 24.1126C173.343 25.8145 173.846 27.2088 174.853 28.2921C175.858 29.3755 177.166 29.9171 178.777 29.9171C180.388 29.9171 181.702 29.3824 182.725 28.3149Z" fill="white"/>
<path d="M220.988 4.07811V34.5807C220.988 35.1346 220.539 35.5819 219.987 35.5819H215.519C215.03 35.5819 214.615 35.2289 214.532 34.7485L214.515 34.6489C214.387 33.901 213.514 33.576 212.912 34.0373C211.174 35.3757 209.068 36.0449 206.592 36.0449C204.457 36.0449 202.56 35.5417 200.903 34.5352C199.247 33.5289 197.954 32.1205 197.026 30.3103C196.096 28.5001 195.633 26.433 195.633 24.1109C195.633 21.7887 196.098 19.7234 197.026 17.9115C197.954 16.0996 199.247 14.6929 200.903 13.6865C202.56 12.6818 204.455 12.1769 206.592 12.1769C208.729 12.1769 210.566 12.6731 212.173 13.6656C212.839 14.0762 213.697 13.5816 213.697 12.7989V4.07811C213.697 3.52421 214.146 3.0769 214.698 3.0769H219.985C220.539 3.0769 220.987 3.52596 220.987 4.07811H220.988ZM212.257 28.3149C213.279 27.2473 213.789 25.8459 213.789 24.1126C213.789 22.3793 213.279 20.978 212.257 19.9104C211.235 18.8428 209.919 18.3081 208.31 18.3081C206.701 18.3081 205.392 18.8498 204.385 19.9331C203.379 21.0164 202.876 22.4108 202.876 24.1126C202.876 25.8145 203.379 27.2089 204.385 28.2922C205.39 29.3755 206.699 29.9172 208.31 29.9172C209.921 29.9172 211.235 29.3825 212.257 28.3149Z" fill="white"/>
<path d="M244.067 13.5484C245.892 14.4937 247.294 15.8234 248.269 17.5428C249.244 19.2603 249.732 21.2662 249.732 23.5569C249.732 24.0864 249.692 24.7032 249.612 25.4056C249.557 25.9123 249.127 26.2967 248.617 26.2967H234.088C233.3 26.2967 232.814 27.1686 233.238 27.8326C233.56 28.3341 233.995 28.7744 234.544 29.1536C235.596 29.8822 236.943 30.2456 238.584 30.2456C239.728 30.2456 240.843 30.0761 241.926 29.7354C242.709 29.489 243.412 29.171 244.034 28.7779C244.444 28.5193 244.977 28.5805 245.309 28.9352L247.808 31.6155C248.205 32.0419 248.159 32.7216 247.701 33.0815C246.586 33.9534 245.319 34.6488 243.901 35.1678C242.12 35.8178 240.225 36.1428 238.212 36.1428C235.548 36.1428 233.242 35.6552 231.292 34.6802C229.342 33.7052 227.839 32.3196 226.788 30.5234C225.734 28.7289 225.208 26.6077 225.208 24.1616C225.208 21.7153 225.725 19.7199 226.763 17.8922C227.799 16.0663 229.248 14.6492 231.105 13.6428C232.962 12.6363 235.114 12.1331 237.56 12.1331C240.006 12.1331 242.234 12.6049 244.062 13.5502L244.067 13.5484ZM234.245 19.0035C233.663 19.477 233.241 20.0693 232.98 20.7822C232.742 21.4305 233.237 22.1154 233.925 22.1154H241.608C242.288 22.1154 242.777 21.4497 242.562 20.8067C242.322 20.0851 241.918 19.484 241.348 19.0052C240.465 18.2626 239.281 17.8905 237.795 17.8905C236.311 17.8905 235.155 18.2626 234.243 19.0052L234.245 19.0035Z" fill="white"/>
<path fill-rule="evenodd" clip-rule="evenodd" d="M104.139 12.1786H116.712C119.856 12.1786 122.406 14.7281 122.406 17.873V30.4449C122.406 33.5898 119.856 36.1392 116.712 36.1392H104.139C100.995 36.1392 98.4454 33.5898 98.4454 30.4449V17.873C98.4454 14.7281 100.995 12.1786 104.139 12.1786ZM107.507 18.5982H113.342C114.802 18.5982 115.985 19.7809 115.985 21.2401V27.076C115.985 28.5351 114.802 29.7179 113.342 29.7179H107.507C106.048 29.7179 104.865 28.5351 104.865 27.076V21.2401C104.865 19.7809 106.048 18.5982 107.507 18.5982Z" fill="white"/>
</g>
<defs>
<clipPath id="clip0_45_137">
<rect width="250" height="38.4615" fill="white"/>
</clipPath>
</defs>
</svg>
