<svg width="271" height="75" viewBox="0 0 271 75" fill="none" xmlns="http://www.w3.org/2000/svg">
<path d="M51.5849 48.3166L44.6374 55.7384C44.4871 55.8997 44.3052 56.0283 44.1028 56.1163C43.9004 56.2044 43.682 56.25 43.4612 56.2502H10.5272C10.3701 56.2501 10.2164 56.2044 10.085 56.1186C9.95365 56.0329 9.85021 55.9108 9.78738 55.7673C9.72455 55.6239 9.70506 55.4654 9.73131 55.3111C9.75755 55.1568 9.82838 55.0134 9.93514 54.8986L16.8748 47.4767C17.0251 47.3155 17.207 47.1869 17.4094 47.0988C17.6118 47.0108 17.8302 46.9652 18.051 46.965H50.985C51.1434 46.9618 51.2995 47.0053 51.4332 47.0901C51.5669 47.175 51.6727 47.2973 51.7366 47.4418C51.8009 47.5863 51.8205 47.7464 51.7935 47.9021C51.7664 48.0577 51.6939 48.202 51.5849 48.3166ZM44.6374 33.3673C44.4866 33.2069 44.3045 33.0787 44.1022 32.9907C43.9 32.9028 43.6818 32.8568 43.4612 32.8557H10.5272C10.3701 32.8557 10.2164 32.9014 10.085 32.9872C9.95365 33.073 9.85021 33.195 9.78738 33.3385C9.72455 33.4819 9.70506 33.6405 9.73131 33.7948C9.75755 33.9491 9.82838 34.0924 9.93514 34.2072L16.8748 41.633C17.0256 41.7935 17.2078 41.9216 17.41 42.0096C17.6122 42.0976 17.8304 42.1436 18.051 42.1447H50.985C51.1419 42.1439 51.2948 42.0976 51.4257 42.0116C51.5567 41.9255 51.6594 41.8034 51.7217 41.6601C51.7841 41.5168 51.8033 41.3586 51.7766 41.2046C51.7504 41.0507 51.6798 40.9077 51.5732 40.7932L44.6374 33.3673ZM10.5272 28.0353H43.4612C43.682 28.0351 43.9004 27.9895 44.1028 27.9015C44.3052 27.8135 44.4871 27.6848 44.6374 27.5236L51.5849 20.1017C51.6939 19.9871 51.7664 19.8429 51.7935 19.6872C51.8205 19.5316 51.8009 19.3714 51.7366 19.2269C51.6727 19.0825 51.5669 18.9601 51.4332 18.8753C51.2995 18.7904 51.1434 18.7469 50.985 18.7502H18.051C17.8302 18.7504 17.6118 18.796 17.4094 18.884C17.207 18.972 17.0251 19.1007 16.8748 19.2619L9.93514 26.6837C9.82838 26.7986 9.75755 26.9419 9.73131 27.0962C9.70506 27.2505 9.72455 27.4091 9.78738 27.5525C9.85021 27.6959 9.95365 27.818 10.085 27.9037C10.2164 27.9895 10.3701 28.0352 10.5272 28.0353Z" fill="white" fill-opacity="0.48"/>
<path fill-rule="evenodd" clip-rule="evenodd" d="M187.818 23.0471H170.567C169.806 23.043 169.052 23.1881 168.348 23.4742C167.644 23.7604 167.003 24.1819 166.463 24.7148C165.922 25.2476 165.492 25.8814 165.197 26.5798C164.902 27.2782 164.748 28.0277 164.744 28.7853V51.9533H170.625V42.4572H187.798V51.9533H193.679V28.7853C193.675 28.0244 193.52 27.2717 193.223 26.5707C192.925 25.8697 192.492 25.2342 191.947 24.7008C191.403 24.1675 190.757 23.7468 190.048 23.463C189.339 23.1791 188.582 23.0378 187.818 23.0471ZM187.775 36.676H170.602V28.8283H187.775V36.676Z" fill="white" fill-opacity="0.48"/>
<path fill-rule="evenodd" clip-rule="evenodd" d="M108.184 23.047H125.87C126.631 23.0429 127.385 23.1881 128.089 23.4742C128.793 23.7604 129.434 24.1819 129.974 24.7147C130.515 25.2476 130.945 25.8813 131.24 26.5797C131.535 27.2782 131.689 28.0276 131.693 28.7853V46.215C131.689 46.9726 131.535 47.7221 131.24 48.4205C130.945 49.1189 130.515 49.7527 129.974 50.2855C129.434 50.8184 128.793 51.2399 128.089 51.5261C127.385 51.8122 126.631 51.9573 125.87 51.9532H108.184C107.422 51.9594 106.667 51.8158 105.961 51.5306C105.255 51.2453 104.612 50.8241 104.07 50.2911C103.527 49.758 103.096 49.1236 102.801 48.4241C102.505 47.7247 102.35 46.974 102.346 46.215V28.7853C102.35 28.0263 102.505 27.2756 102.801 26.5761C103.096 25.8767 103.527 25.2422 104.07 24.7092C104.612 24.1761 105.255 23.7549 105.961 23.4697C106.667 23.1845 107.422 23.0408 108.184 23.047ZM108.227 46.172H125.827L125.819 28.8283H108.227V46.172Z" fill="white" fill-opacity="0.48"/>
<path d="M74.117 34.6094H91.7367C92.4977 34.6053 93.2524 34.7507 93.957 35.0374C94.6615 35.324 95.3026 35.7462 95.8436 36.2799C96.3843 36.8136 96.814 37.4482 97.1085 38.1476C97.4029 38.8469 97.5558 39.5972 97.559 40.3555V46.2149C97.555 46.9725 97.4009 47.722 97.1061 48.4204C96.8113 49.1188 96.3812 49.7526 95.8405 50.2854C95.3002 50.8183 94.6592 51.2398 93.955 51.526C93.2509 51.8121 92.4973 51.9573 91.7367 51.9531H68.6554V46.1719H91.7014V40.3906H74.0582C73.2972 40.3948 72.5424 40.2494 71.8379 39.9627C71.1333 39.6761 70.4923 39.2538 69.9512 38.7201C69.4106 38.1865 68.9808 37.5518 68.6864 36.8525C68.392 36.1532 68.239 35.4029 68.2359 34.6446V28.7852C68.2398 28.0275 68.3939 27.2781 68.6888 26.5796C68.9836 25.8812 69.4137 25.2475 69.9544 24.7146C70.4946 24.1818 71.1357 23.7603 71.8398 23.4741C72.544 23.188 73.2976 23.0428 74.0582 23.0469H96.3161V28.8281H74.117V34.6094Z" fill="white" fill-opacity="0.48"/>
<path fill-rule="evenodd" clip-rule="evenodd" d="M239.238 23.0469H256.489C257.25 23.0428 258.003 23.188 258.707 23.4741C259.411 23.7603 260.052 24.1818 260.593 24.7146C261.133 25.2475 261.563 25.8812 261.858 26.5796C262.153 27.2781 262.307 28.0275 262.311 28.7852V51.9531H256.43V42.457H239.297V51.9531H233.415V28.7852C233.419 28.0275 233.573 27.2781 233.868 26.5796C234.163 25.8812 234.593 25.2475 235.134 24.7146C235.675 24.1818 236.315 23.7603 237.019 23.4741C237.724 23.188 238.477 23.0428 239.238 23.0469ZM239.257 36.6758H256.43V28.8281H239.257V36.6758Z" fill="white" fill-opacity="0.48"/>
<path d="M222.32 46.1719H219.968L211.558 25.4687C211.27 24.7545 210.774 24.1423 210.134 23.7108C209.494 23.2793 208.739 23.0481 207.966 23.0469H202.748C202.241 23.0443 201.738 23.1413 201.269 23.3323C200.799 23.5233 200.372 23.8045 200.011 24.16C199.651 24.5155 199.364 24.9382 199.168 25.4041C198.971 25.8699 198.869 26.3697 198.866 26.875V51.9531H204.747V28.8281H207.1L215.506 49.5312C215.799 50.2441 216.299 50.8538 216.941 51.2824C217.583 51.711 218.34 51.939 219.113 51.9375H224.331C224.839 51.9401 225.341 51.8431 225.811 51.6521C226.28 51.4611 226.707 51.1798 227.068 50.8244C227.428 50.4689 227.715 50.0462 227.911 49.5803C228.108 49.1145 228.21 48.6147 228.213 48.1094V23.0469H222.32V46.1719Z" fill="white" fill-opacity="0.48"/>
<path d="M136.888 23.047H142.769V46.172H160.373V51.9532H142.73C141.968 51.9599 141.212 51.8167 140.505 51.5317C139.799 51.2467 139.156 50.8256 138.613 50.2925C138.07 49.7593 137.639 49.1248 137.343 48.425C137.047 47.7254 136.892 46.9743 136.888 46.215V23.047Z" fill="white" fill-opacity="0.48"/>
</svg>
