<svg width="289" height="81" viewBox="0 0 289 81" fill="none" xmlns="http://www.w3.org/2000/svg">
<path d="M98.2529 31.6732V55.6543H104.747V31.6732H115.316V25.9432H87.6842V31.6732H98.2529ZM113.699 33.1588V55.6543H119.981V45.3828C119.981 43.0908 120.448 41.393 121.382 40.247C122.315 39.101 123.674 38.5068 125.414 38.5068C126.432 38.5068 127.536 38.6766 128.682 38.9737L129.998 33.3286C128.64 32.9466 127.409 32.7343 126.305 32.7343C123.546 32.7343 121.339 33.6257 119.684 35.3234H119.599V33.1588H113.699ZM131.927 46.0194C131.927 49.2877 132.818 51.8343 134.601 53.617C136.384 55.3997 138.888 56.291 142.114 56.291C145.254 56.291 147.759 55.3997 149.711 53.5321H149.796V55.6543H155.866V33.1588H149.584V45.0857C149.584 46.6986 149.032 48.0568 147.928 49.0754C146.825 50.0941 145.424 50.6034 143.726 50.6034C141.944 50.6034 140.543 50.1366 139.609 49.2028C138.676 48.269 138.209 46.8683 138.209 45.0857V33.1588H131.927V46.0194ZM159.231 44.449C159.231 46.8259 159.698 48.9057 160.717 50.6883C161.736 52.471 163.179 53.8717 165.089 54.8479C166.956 55.8241 169.206 56.291 171.837 56.291C174.172 56.291 176.209 55.909 177.949 55.145C179.69 54.381 181.26 53.235 182.618 51.7494L178.713 47.8446C177.567 49.033 176.464 49.8819 175.403 50.3912C174.342 50.943 173.153 51.1977 171.795 51.1977C169.927 51.1977 168.399 50.7732 167.296 49.9243C166.15 49.0754 165.513 47.887 165.428 46.4014H183.679V44.6188C183.679 42.3692 183.17 40.3319 182.194 38.4643C181.175 36.6392 179.775 35.1961 177.907 34.135C176.039 33.0739 173.917 32.5221 171.455 32.5221C169.079 32.5221 166.999 33.0314 165.131 34.0501C163.264 35.0688 161.82 36.5119 160.802 38.2946C159.741 40.1197 159.231 42.157 159.231 44.449ZM177.567 41.9872H165.513C165.683 40.6714 166.277 39.6103 167.381 38.8039C168.484 38.0399 169.885 37.6154 171.583 37.6154C173.238 37.6154 174.596 38.0399 175.7 38.8039C176.803 39.6103 177.398 40.6714 177.567 41.9872ZM187.618 44.2368C187.618 48.2266 188.764 51.1977 191.098 53.235C193.433 55.2723 196.743 56.291 201.073 56.291C205.36 56.291 208.67 55.2723 211.005 53.235C213.339 51.1977 214.528 48.2266 214.528 44.2368V25.9432H208.034V43.9821C208.034 46.2741 207.439 47.9294 206.293 48.9906C205.105 50.0941 203.365 50.6034 201.073 50.6034C198.738 50.6034 196.998 50.0941 195.852 48.9906C194.664 47.9294 194.112 46.2317 194.112 43.9397V25.9432H187.618V44.2368ZM218.038 45.8497C218.59 49.2028 220.118 51.7919 222.622 53.5746C225.127 55.3997 228.395 56.291 232.385 56.291C234.889 56.291 237.096 55.9514 238.964 55.2299C240.831 54.5083 242.317 53.4897 243.335 52.1314C244.354 50.7732 244.863 49.2028 244.863 47.4201C244.863 44.9159 243.93 42.8786 242.062 41.3506C240.194 39.8226 237.266 38.5917 233.276 37.7003C231.069 37.2334 229.371 36.809 228.225 36.427C227.079 36.0874 226.315 35.7054 225.891 35.3234C225.466 34.9414 225.254 34.4746 225.254 33.9652C225.254 33.0739 225.721 32.3523 226.697 31.7581C227.673 31.1639 228.947 30.8668 230.475 30.8668C232.3 30.8668 233.828 31.2912 235.016 32.0977C236.205 32.9466 237.054 34.135 237.563 35.7479L243.845 34.2623C243.166 31.5459 241.595 29.3812 239.218 27.7683C236.799 26.1554 233.913 25.349 230.517 25.349C228.183 25.349 226.145 25.731 224.363 26.495C222.58 27.259 221.179 28.3201 220.203 29.6359C219.227 30.9517 218.76 32.3948 218.76 34.0077C218.76 36.2572 219.609 38.0823 221.392 39.483C223.174 40.8837 226.103 42.0297 230.178 42.921C232.342 43.4303 234.04 43.8972 235.228 44.3217C236.417 44.7461 237.223 45.213 237.69 45.7223C238.115 46.2317 238.369 46.7834 238.369 47.4626C238.369 48.5661 237.818 49.3726 236.799 49.9668C235.78 50.561 234.295 50.8157 232.427 50.8157C230.093 50.8157 228.268 50.3488 226.994 49.3301C225.721 48.3114 224.83 46.741 224.405 44.5763L218.038 45.8497ZM248.595 25.9432V55.6543H260.692C265.361 55.6543 269.011 54.4234 271.727 51.9192C274.444 49.4574 275.802 45.7223 275.802 40.7988C275.802 37.573 275.165 34.8566 273.934 32.6494C272.661 30.4423 270.921 28.7446 268.671 27.641C266.422 26.5374 263.79 25.9432 260.777 25.9432H248.595ZM260.564 49.9668H255.089V31.6308H260.564C263.451 31.6308 265.615 32.3948 267.101 33.8803C268.544 35.4083 269.308 37.7003 269.308 40.7988C269.308 44.0246 268.544 46.359 267.101 47.8021C265.615 49.2452 263.451 49.9668 260.564 49.9668Z" fill="white" fill-opacity="0.48"/>
<path d="M43.6666 71C60.2352 71 73.6666 57.5685 73.6666 41C73.6666 24.4315 60.2352 11 43.6666 11C27.0981 11 13.6666 24.4315 13.6666 41C13.6666 57.5685 27.0981 71 43.6666 71Z" fill="white" fill-opacity="0.48"/>
<path d="M28.4303 36.7256V26.504L38.6519 26.5064C38.6519 32.1488 34.0751 36.7256 28.4303 36.7256Z" fill="#00282D"/>
<path d="M38.651 36.6272V57.2048L48.767 57.2168V36.6392H58.8974V26.516H48.767C48.6806 26.516 48.5942 26.516 48.5078 26.5184C48.4214 26.5208 48.335 26.5232 48.2486 26.528C48.1622 26.5328 48.0782 26.5376 47.9918 26.5448L47.9734 26.5464C47.8952 26.5531 47.8153 26.5599 47.7374 26.5688C47.651 26.576 47.567 26.5856 47.483 26.5976L47.231 26.6336C47.147 26.6456 47.063 26.66 46.9814 26.6744C46.8998 26.6888 46.8158 26.7056 46.7342 26.7224C46.6526 26.7392 46.571 26.756 46.4894 26.7752C46.4078 26.7944 46.3286 26.8136 46.247 26.8352C46.1678 26.8544 46.0862 26.876 46.007 26.9L45.7694 26.972C45.6902 26.996 45.611 27.0224 45.5342 27.0488C45.5186 27.0542 45.5029 27.0595 45.4872 27.0649C45.4253 27.086 45.3626 27.1074 45.3014 27.1304C45.2246 27.1592 45.1478 27.188 45.071 27.2192C45.0326 27.2348 44.9948 27.2504 44.957 27.266C44.9192 27.2816 44.8814 27.2972 44.843 27.3128C44.7662 27.344 44.6918 27.3776 44.6174 27.4112C44.543 27.4448 44.4686 27.4784 44.3942 27.5144C44.3198 27.5504 44.2454 27.5864 44.1734 27.6248L43.9574 27.74C43.8854 27.7784 43.8134 27.8192 43.7438 27.86C43.6718 27.9008 43.6022 27.9416 43.5326 27.9848C43.463 28.028 43.3934 28.0712 43.3262 28.1144C43.2566 28.1576 43.1895 28.2032 43.1223 28.2487C43.0551 28.2943 42.9902 28.34 42.923 28.388C42.8559 28.436 42.7911 28.4839 42.7264 28.5319C42.6749 28.5687 42.626 28.607 42.5769 28.6455C42.562 28.6572 42.5469 28.669 42.5318 28.6808C42.467 28.7312 42.4046 28.7816 42.3422 28.8344C42.2995 28.8689 42.2579 28.9045 42.2159 28.9405C42.1965 28.9571 42.1771 28.9737 42.1574 28.9904C42.095 29.0432 42.035 29.096 41.975 29.1512C41.915 29.2064 41.855 29.2616 41.7974 29.3168C41.7398 29.372 41.6822 29.4296 41.6246 29.4872C41.567 29.5424 41.5094 29.6024 41.4542 29.66C41.399 29.7176 41.3438 29.7776 41.2886 29.8376L41.1278 30.02C41.087 30.0643 41.0488 30.11 41.0103 30.156C40.9968 30.1723 40.9832 30.1885 40.9694 30.2048C40.9166 30.2672 40.8662 30.3296 40.8158 30.3944C40.7654 30.4568 40.715 30.5216 40.667 30.5864C40.619 30.6512 40.571 30.716 40.523 30.7832C40.475 30.848 40.4294 30.9152 40.3838 30.9824C40.3382 31.0496 40.2926 31.1192 40.2494 31.1864C40.2062 31.2536 40.163 31.3231 40.1199 31.3927C40.0883 31.4436 40.0579 31.4959 40.028 31.5474C40.0169 31.5664 40.006 31.5853 39.995 31.604C39.9542 31.6736 39.9134 31.7456 39.875 31.8176L39.7598 32.0336C39.7214 32.108 39.6854 32.18 39.6494 32.2544C39.6326 32.2916 39.6152 32.3288 39.5978 32.366C39.5804 32.4032 39.563 32.4404 39.5462 32.4776C39.5126 32.5519 39.479 32.6264 39.4478 32.7032C39.4322 32.7416 39.4166 32.7794 39.401 32.8172C39.3854 32.855 39.3698 32.8928 39.3542 32.9312C39.323 33.008 39.2942 33.0848 39.2654 33.1616C39.2366 33.2384 39.2102 33.3152 39.1838 33.3944C39.1574 33.4712 39.131 33.5504 39.107 33.6296C39.0806 33.7088 39.0566 33.788 39.035 33.8672C39.0242 33.9068 39.0134 33.947 39.0026 33.9872C38.9918 34.0274 38.981 34.0676 38.9702 34.1072C38.9486 34.1864 38.9294 34.2679 38.9102 34.3495C38.891 34.4311 38.8742 34.5128 38.8574 34.5944C38.8406 34.676 38.8238 34.7576 38.8094 34.8416C38.795 34.9232 38.7806 35.0072 38.7686 35.0912C38.7542 35.1752 38.7422 35.2592 38.7326 35.3432L38.7038 35.5976C38.6942 35.6816 38.687 35.7656 38.6798 35.852C38.6726 35.936 38.6678 36.0223 38.663 36.1087C38.6582 36.1951 38.6558 36.2816 38.6534 36.368C38.651 36.4544 38.651 36.5408 38.651 36.6272Z" fill="#00282D"/>
</svg>
