<svg width="235" height="79" viewBox="0 0 235 79" fill="none" xmlns="http://www.w3.org/2000/svg">
<path d="M77.3152 27.0846H78.821C79.0109 27.0846 79.1929 27.1609 79.3272 27.2969C79.4614 27.4329 79.5368 27.6173 79.5368 27.8095V41.8715C79.5368 46.3141 81.9108 49.1209 86.3274 49.1209C90.744 49.1209 93.118 46.3141 93.118 41.8715V27.8095C93.118 27.6173 93.1934 27.4329 93.3276 27.2969C93.4619 27.1609 93.6439 27.0846 93.8338 27.0846H95.4305C95.5245 27.0846 95.6175 27.1033 95.7044 27.1398C95.7912 27.1762 95.8701 27.2296 95.9366 27.2969C96.003 27.3642 96.0558 27.4441 96.0917 27.5321C96.1277 27.62 96.1462 27.7143 96.1462 27.8095V41.9087C96.1462 47.9592 92.873 51.8162 86.3733 51.8162C79.8736 51.8162 76.6003 47.922 76.6003 41.9459V27.8095C76.5988 27.714 76.6163 27.6191 76.6517 27.5305C76.6871 27.442 76.7397 27.3615 76.8063 27.2939C76.873 27.2263 76.9524 27.1729 77.0398 27.137C77.1272 27.101 77.2208 27.0832 77.3152 27.0846ZM100.701 46.2704C100.755 46.2004 100.824 46.1427 100.902 46.1011C100.98 46.0595 101.066 46.0348 101.154 46.0287C101.242 46.0226 101.331 46.0352 101.414 46.0656C101.497 46.096 101.573 46.1436 101.637 46.2054C103.242 47.7854 105.647 49.1516 108.693 49.1516C112.969 49.1516 114.337 46.8188 114.337 44.9599C114.337 42.0416 111.428 41.2423 108.262 40.3687C104.417 39.3463 100.132 38.2589 100.132 33.4817C100.132 29.4759 103.655 26.7435 108.372 26.7435C111.758 26.7435 114.438 27.7937 116.411 29.6432C116.547 29.7698 116.63 29.9449 116.642 30.132C116.654 30.3191 116.594 30.5037 116.475 30.647L115.539 31.8088C115.484 31.8762 115.416 31.9315 115.339 31.9711C115.262 32.0107 115.178 32.0339 115.092 32.0391C115.006 32.0443 114.92 32.0315 114.839 32.0015C114.758 31.9715 114.684 31.9248 114.621 31.8645C112.869 30.2009 110.556 29.4388 108.152 29.4388C105.27 29.4388 103.224 31.0095 103.224 33.2958C103.224 35.7402 105.995 36.4651 109.051 37.3016C112.969 38.3611 117.429 39.5972 117.429 44.6997C117.429 48.2315 115.053 51.8376 108.583 51.8376C104.711 51.8376 101.793 50.4528 99.8104 48.4452C99.6854 48.3192 99.6107 48.1509 99.6005 47.9726C99.5904 47.7943 99.6455 47.6184 99.7553 47.4787L100.701 46.2704ZM121.014 27.9025C121.014 27.7102 121.09 27.5258 121.224 27.3898C121.358 27.2539 121.54 27.1775 121.73 27.1775H129.196C136.629 27.1775 141.484 32.4482 141.484 39.3249C141.484 46.2388 136.637 51.4352 129.196 51.4352H121.73C121.54 51.4352 121.358 51.3588 121.224 51.2228C121.09 51.0869 121.014 50.9025 121.014 50.7102V27.9025ZM129.153 48.7399C134.968 48.7399 138.339 44.5194 138.339 39.3249C138.339 34.084 135.069 29.8728 129.153 29.8728H123.951V48.7399H129.153ZM171.332 42.5993C171.332 37.4968 174.645 33.3795 179.93 33.3795C185.216 33.3795 188.529 37.4968 188.529 42.5993C188.529 47.7017 185.216 51.8562 179.93 51.8562C174.645 51.8562 171.332 47.6924 171.332 42.5993ZM185.684 42.5993C185.684 39.0303 183.638 35.8238 179.93 35.8238C176.223 35.8238 174.14 39.0303 174.14 42.5993C174.14 46.2054 176.223 49.4118 179.93 49.4118C183.638 49.4118 185.684 46.2054 185.684 42.5993ZM191.116 29.0112C191.117 28.5283 191.307 28.0654 191.644 27.724C191.981 27.3825 192.438 27.1903 192.915 27.1896C193.154 27.1862 193.391 27.2307 193.613 27.3205C193.835 27.4104 194.037 27.5438 194.207 27.7132C194.378 27.8825 194.514 28.0844 194.607 28.3072C194.7 28.53 194.749 28.7693 194.75 29.0112C194.749 29.5038 194.555 29.9757 194.211 30.324C193.867 30.6723 193.401 30.8686 192.915 30.8701C191.942 30.8701 191.116 30.0243 191.116 29.0112ZM192.297 33.8693H193.527C193.717 33.8693 193.899 33.9457 194.033 34.0816C194.167 34.2176 194.243 34.402 194.243 34.5942V50.7102C194.243 50.9025 194.167 51.0869 194.033 51.2228C193.899 51.3588 193.717 51.4352 193.527 51.4352H192.297C192.203 51.4352 192.11 51.4164 192.024 51.38C191.937 51.3435 191.858 51.2902 191.791 51.2228C191.725 51.1555 191.672 51.0756 191.636 50.9876C191.6 50.8997 191.582 50.8054 191.582 50.7102V34.5942C191.582 34.499 191.6 34.4048 191.636 34.3168C191.672 34.2288 191.725 34.1489 191.791 34.0816C191.858 34.0143 191.937 33.9609 192.024 33.9245C192.11 33.888 192.203 33.8693 192.297 33.8693ZM209.834 39.9105C209.834 36.8081 208.291 35.821 205.972 35.821C203.862 35.821 201.854 37.1352 200.85 38.56V50.7111C200.85 50.9034 200.774 51.0878 200.64 51.2238C200.506 51.3597 200.324 51.4361 200.134 51.4361H198.813C198.623 51.4361 198.441 51.3597 198.307 51.2238C198.172 51.0878 198.097 50.9034 198.097 50.7111V34.5952C198.097 34.4029 198.172 34.2185 198.307 34.0825C198.441 33.9466 198.623 33.8702 198.813 33.8702H200.042C200.232 33.8702 200.414 33.9466 200.548 34.0825C200.683 34.2185 200.758 34.4029 200.758 34.5952V36.414C201.98 34.9567 204.361 33.4334 206.953 33.4334C210.593 33.4334 212.504 35.2922 212.504 39.1028V50.7074C212.504 50.8026 212.486 50.8969 212.45 50.9849C212.414 51.0728 212.361 51.1527 212.294 51.22C212.228 51.2874 212.149 51.3408 212.062 51.3772C211.975 51.4136 211.882 51.4324 211.788 51.4324H210.559C210.369 51.4324 210.187 51.356 210.052 51.22C209.918 51.0841 209.843 50.8997 209.843 50.7074V39.9105H209.834ZM148.299 39.2812C148.299 31.8088 153.731 26.7156 160.531 26.7156C164.56 26.7156 167.386 28.4908 169.295 30.9258C169.351 30.9985 169.392 31.0827 169.413 31.1726C169.435 31.2626 169.437 31.3562 169.42 31.4471C169.402 31.538 169.366 31.624 169.313 31.6993C169.259 31.7745 169.191 31.8372 169.111 31.8831L167.771 32.636C167.624 32.7192 167.452 32.7472 167.286 32.7149C167.119 32.6826 166.97 32.5921 166.863 32.4594C166.096 31.5095 165.13 30.7441 164.035 30.2185C162.94 29.6929 161.743 29.4203 160.531 29.4202C155.383 29.4202 151.391 33.5003 151.391 39.2905C151.391 45.0436 155.383 49.1609 160.531 49.1609C163.146 49.1609 165.45 47.9341 166.863 46.1217C166.969 45.9874 167.118 45.8951 167.284 45.8611C167.45 45.8271 167.623 45.8536 167.771 45.9358L169.13 46.6887C169.211 46.7342 169.281 46.7971 169.335 46.8731C169.39 46.9491 169.427 47.0363 169.444 47.1285C169.462 47.2207 169.459 47.3156 169.437 47.4067C169.414 47.4977 169.372 47.5825 169.313 47.6552C167.331 50.1089 164.56 51.8562 160.531 51.8562C153.731 51.8469 148.299 46.7537 148.299 39.2812Z" fill="white" fill-opacity="0.48"/>
<path d="M67.4977 45.22C64.3753 57.9087 51.6865 65.6569 39.1354 62.4925C26.6073 59.3203 18.9695 46.4687 22.092 33.7801C25.2144 21.0914 37.8956 13.3432 50.416 16.5076C62.9748 19.6333 70.6125 32.5236 67.4977 45.22Z" fill="white" fill-opacity="0.48"/>
<path d="M31.1704 34.2679C28.3428 41.8718 32.2428 50.463 39.8478 53.2279C40.1403 53.4255 40.4328 53.8204 40.4328 54.1166V55.4993C40.4328 55.6967 40.4328 55.7955 40.3353 55.8941C40.2379 56.2892 39.8478 56.4866 39.4578 56.2892C33.9978 54.5117 29.8053 50.2654 28.0503 44.7355C25.1253 35.3543 30.1953 25.3804 39.4578 22.4179C39.5553 22.3193 39.7503 22.3193 39.8478 22.3193C40.2379 22.4179 40.4328 22.7141 40.4328 23.1092V24.4916C40.4328 24.9855 40.2379 25.2818 39.8478 25.4792C35.8504 26.9605 32.6329 30.1204 31.1704 34.2679Z" fill="#00282D"/>
<path d="M49.3054 22.813C49.4028 22.4179 49.7928 22.2205 50.1829 22.4179C55.5453 24.1954 59.8354 28.4417 61.5904 34.0705C64.5154 43.4516 59.4453 53.4255 50.1829 56.388C50.0853 56.4866 49.8904 56.4866 49.7928 56.4866C49.4028 56.388 49.2078 56.0918 49.2078 55.6967V54.3143C49.2078 53.8204 49.4028 53.5241 49.7928 53.3267C53.7903 51.8455 57.0078 48.6855 58.4703 44.538C61.2979 36.9341 57.3978 28.3429 49.7928 25.578C49.5003 25.3804 49.2078 24.9855 49.2078 24.5905V23.208C49.2078 23.0104 49.2078 22.9118 49.3054 22.813Z" fill="#00282D"/>
<path d="M45.1128 37.7243C49.2078 38.218 51.2553 39.403 51.2553 42.8592C51.2553 45.5254 49.3054 47.5992 46.3804 48.0931V50.4631C46.2828 50.9568 45.9903 51.253 45.6002 51.253H44.1377C43.6503 51.1542 43.3578 50.8579 43.3578 50.4631V48.0931C40.1403 47.5992 38.5802 45.8217 38.1903 43.3531V43.2543C38.1903 42.8592 38.4829 42.5629 38.8727 42.5629H40.5303C40.8228 42.5629 41.1154 42.7606 41.2127 43.1554C41.5052 44.6367 42.3827 45.7231 44.9178 45.7231C46.7702 45.7231 48.1354 44.6369 48.1354 43.0569C48.1354 41.4768 47.2578 40.8843 44.5278 40.3906C40.4328 39.8967 38.4828 38.6131 38.4828 35.3543C38.4828 32.8855 40.3352 30.9106 43.2602 30.5155V28.2443C43.3578 27.7504 43.6503 27.4542 44.0403 27.4542H45.5028C45.9903 27.553 46.2828 27.8493 46.2828 28.2443V30.6143C48.5252 30.8118 50.2802 32.4904 50.6703 34.663V34.7618C50.6703 35.1567 50.3778 35.4529 49.9877 35.4529H48.4279C48.1354 35.4529 47.8428 35.2555 47.7453 34.9593C47.2579 33.478 46.2828 32.8855 44.5278 32.8855C42.5779 32.8855 41.6028 33.774 41.6028 35.1567C41.6028 36.5393 42.1878 37.3293 45.1128 37.7243Z" fill="#00282D"/>
</svg>
